<svg width="32" height="32" xmlns="http://www.w3.org/2000/svg">

 <g>
  <title>background</title>
  <rect fill="none" id="canvas_background" height="402" width="582" y="-1" x="-1"/>
 </g>
 <g>
  <title>Layer 1</title>
  <path fill="#ffffff" id="svg_2" d="m27.929,13.055c0.049,-0.348 0.071,-0.701 0.071,-1.055c0,-4.41 -3.588,-8 -8,-8c-2.559,0 -4.907,1.208 -6.396,3.189c-0.523,-0.127 -1.059,-0.189 -1.604,-0.189c-3.858,0 -7,3.141 -7,7c0,0.098 0.002,0.191 0.007,0.288c-2.894,0.858 -5.007,3.544 -5.007,6.712c0,3.857 3.142,7 7,7l17,0c4.412,0 8,-3.588 8,-8c0,-2.917 -1.604,-5.551 -4.071,-6.945zm-3.929,12.945l-17,0c-2.762,0 -5,-2.238 -5,-5c0,-2.763 2.238,-5 5,-5c0.152,0 0.298,0.031 0.445,0.045c-0.281,-0.625 -0.445,-1.315 -0.445,-2.045c0,-2.763 2.238,-5 5,-5c0.902,0 1.738,0.258 2.47,0.675c0.905,-2.159 3.041,-3.675 5.53,-3.675c3.313,0 6,2.686 6,6c0,0.788 -0.161,1.538 -0.438,2.229c2.555,0.69 4.438,3 4.438,5.771c0,3.312 -2.687,6 -6,6z"/>
  <path fill="#ffffff" id="svg_3" d="m14.586,18l-2.827,-2.829l-2.828,2.829l5.655,5.656l8.484,-8.485l-2.828,-2.827l-5.656,5.656z"/>
 </g>
</svg>