<?xml version="1.0" ?><!DOCTYPE svg  PUBLIC '-//W3C//DTD SVG 1.1//EN'  'http://www.w3.org/Graphics/SVG/1.1/DTD/svg11.dtd'><svg height="32px" id="Layer_1" style="enable-background:new 0 0 32 32;" version="1.1" viewBox="0 0 32 32" width="32px" xml:space="preserve" xmlns="http://www.w3.org/2000/svg" xmlns:xlink="http://www.w3.org/1999/xlink"><g transform="translate(576 48)"><path d="M-548.071-34.945C-548.022-35.293-548-35.646-548-36c0-4.41-3.588-8-8-8c-2.559,0-4.907,1.208-6.396,3.189   C-562.919-40.938-563.455-41-564-41c-3.858,0-7,3.141-7,7c0,0.098,0.002,0.191,0.007,0.288C-573.887-32.854-576-30.168-576-27   c0,3.857,3.142,7,7,7h17c4.412,0,8-3.588,8-8C-544-30.917-545.604-33.551-548.071-34.945z M-552-22h-17c-2.762,0-5-2.238-5-5   c0-2.763,2.238-5,5-5c0.152,0,0.298,0.031,0.445,0.045C-568.836-32.58-569-33.27-569-34c0-2.763,2.238-5,5-5   c0.902,0,1.738,0.258,2.47,0.675C-560.625-40.484-558.489-42-556-42c3.313,0,6,2.686,6,6c0,0.788-0.161,1.538-0.438,2.229   c2.555,0.69,4.438,3,4.438,5.771C-546-24.688-548.687-22-552-22z"/><path d="M-561.414-30l-2.827-2.829L-567.069-30l5.655,5.656l8.484-8.485l-2.828-2.827L-561.414-30z"/></g></svg>